HIERARCHY
ROOT Hips
{
    OFFSET 0.000000 0.000000 0.000000
    CHANNELS 6 Xposition Yposition Zposition Zrotation Xrotation Yrotation
    JOINT Spine
    {
        OFFSET -0.000000 8.505030 0.000000
        CHANNELS 3 Zrotation Xrotation Yrotation
        JOINT Spine1
        {
            OFFSET -0.000000 25.070629 0.000000
            CHANNELS 3 Zrotation Xrotation Yrotation
            JOINT Neck
            {
                OFFSET -0.000000 24.967667 2.269788
                CHANNELS 3 Zrotation Xrotation Yrotation
                JOINT Head
                {
                    OFFSET -0.000000 14.520781 -2.074397
                    CHANNELS 3 Zrotation Xrotation Yrotation
                    End Site
                    {
                        OFFSET -0.000000 25.929966 0.000000
                    }
                }
            }
            JOINT LeftShoulder
            {
                OFFSET 4.117346 22.983784 -0.389865
                CHANNELS 3 Zrotation Xrotation Yrotation
                JOINT LeftArm
                {
                    OFFSET 11.957758 0.000000 0.000000
                    CHANNELS 3 Zrotation Xrotation Yrotation
                    JOINT LeftForeArm
                    {
                        OFFSET 31.907600 0.000000 0.000000
                        CHANNELS 3 Zrotation Xrotation Yrotation
                        JOINT LeftHand
                        {
                            OFFSET 28.601147 0.000000 0.000000
                            CHANNELS 3 Zrotation Xrotation Yrotation
                            End Site
                            {
                                OFFSET 15.557981 0.000000 0.000000
                            }
                        }
                    }
                }
            }
            JOINT RightShoulder
            {
                OFFSET -4.061940 22.983784 -0.389865
                CHANNELS 3 Zrotation Xrotation Yrotation
                JOINT RightArm
                {
                    OFFSET -11.957758 0.000000 0.000000
                    CHANNELS 3 Zrotation Xrotation Yrotation
                    JOINT RightForeArm
                    {
                        OFFSET -31.907600 0.000000 0.000000
                        CHANNELS 3 Zrotation Xrotation Yrotation
                        JOINT RightHand
                        {
                            OFFSET -28.601147 0.000000 0.000000
                            CHANNELS 3 Zrotation Xrotation Yrotation
                            End Site
                            {
                                OFFSET -15.557981 0.000000 0.000000
                            }
                        }
                    }
                }
            }
        }
    }
    JOINT LeftUpLeg
    {
        OFFSET 10.371986 0.000000 0.000000
        CHANNELS 3 Zrotation Xrotation Yrotation
        JOINT LeftLeg
        {
            OFFSET -0.000000 -42.486427 0.000000
            CHANNELS 3 Zrotation Xrotation Yrotation
            JOINT LeftFoot
            {
                OFFSET -0.000000 -48.322342 0.000000
                CHANNELS 3 Zrotation Xrotation Yrotation
                JOINT LeftToeBase
                {
                    OFFSET -0.000000 -6.741791 15.557981
                    CHANNELS 3 Zrotation Xrotation Yrotation
                    End Site
                    {
                        OFFSET -0.000000 0.000000 4.148795
                    }
                }
            }
        }
    }
    JOINT RightUpLeg
    {
        OFFSET -10.371986 0.000000 0.000000
        CHANNELS 3 Zrotation Xrotation Yrotation
        JOINT RightLeg
        {
            OFFSET -0.000000 -42.486427 0.000000
            CHANNELS 3 Zrotation Xrotation Yrotation
            JOINT RightFoot
            {
                OFFSET -0.000000 -48.322342 0.000000
                CHANNELS 3 Zrotation Xrotation Yrotation
                JOINT RightToeBase
                {
                    OFFSET -0.000000 -6.741791 15.557981
                    CHANNELS 3 Zrotation Xrotation Yrotation
                    End Site
                    {
                        OFFSET -0.000000 0.000000 4.148795
                    }
                }
            }
        }
    }
}
MOTION
Frames:    7
Frame Time:    0.008333
-0.195637    98.821045    -3.293854    -2.312023    -1.059794    92.188889    -0.282221    -7.870593    1.925096    1.720569    -4.758692    2.016015    -2.206811    32.663795    -4.568305    5.148139    -3.388233    -4.231934    13.770157    1.091881    -10.545374    -13.600724    -0.962381    1.322296    -3.124419    -6.034484    29.624424    -1.312624    -5.140924    -6.225646    -16.056099    3.682319    -9.039347    20.869726    -5.256906    12.186967    3.803080    -0.314761    -23.256334    -4.208510    0.735941    -7.274396    4.151779    4.124399    6.345924    -1.575422    4.435394    7.093140    -2.141314    -6.677779    7.975702    0.000000    0.000000    0.000000    -3.464767    4.508166    1.663806    1.674499    0.665561    1.025035    3.922942    -5.158463    -14.315451    0.000000    0.000000    0.000000    
-0.182185    98.817505    -3.292928    -2.310203    -1.056362    92.241547    -0.270730    -7.901951    1.912651    1.695242    -4.716461    2.001163    -2.211154    32.642960    -4.563205    5.160128    -3.216895    -4.232327    13.768077    1.094121    -10.532498    -13.605779    -0.966762    1.279551    -3.125032    -6.038866    29.594185    -1.315464    -5.145415    -6.264115    -16.089220    3.671247    -9.045562    20.893024    -5.199069    12.177697    3.806826    -0.317975    -23.242107    -4.168550    0.730564    -7.280788    4.153383    4.146237    6.308105    -1.578184    4.400784    7.067980    -2.234272    -6.721701    7.930844    0.000000    0.000000    0.000000    -3.463917    4.513988    1.649011    1.678599    0.687460    0.992697    3.893739    -5.177584    -14.324188    0.000000    0.000000    0.000000    
-0.171188    98.816833    -3.291058    -2.306078    -1.049831    92.303741    -0.274864    -7.933172    1.894285    1.689625    -4.658535    1.982104    -2.200100    32.621403    -4.563573    5.135257    -3.089695    -4.240236    13.764675    1.078601    -10.527316    -13.644752    -0.898631    1.268033    -3.080577    -6.090556    29.531912    -1.395373    -5.205965    -6.291862    -16.126341    3.643750    -9.078872    20.913485    -4.989383    12.181339    3.787276    -0.455305    -23.215279    -4.329256    0.595370    -7.196756    4.152958    4.152058    6.278724    -1.575963    4.390621    7.030664    -2.241928    -6.719640    7.931043    0.000000    0.000000    0.000000    -3.461178    4.527786    1.602426    1.671950    0.705858    0.994797    3.898136    -5.204976    -14.331144    0.000000    0.000000    0.000000    
-0.159235    98.813942    -3.286128    -2.302074    -1.053506    92.352783    -0.273260    -7.956653    1.882123    1.696489    -4.625608    1.969677    -2.225470    32.640217    -4.557211    5.148771    -2.977779    -4.240818    13.741908    1.090115    -10.555305    -13.649806    -0.896584    1.284484    -3.052503    -6.116876    29.481232    -1.492664    -5.235091    -6.343951    -16.154387    3.650256    -9.095240    20.916435    -5.152659    12.191529    3.835419    -0.282305    -23.217102    -4.111913    0.766613    -7.249406    4.167695    4.151834    6.329308    -1.574858    4.399169    6.943097    -2.247947    -6.732618    7.919901    0.000000    0.000000    0.000000    -3.451345    4.536316    1.611002    1.675040    0.725021    0.991251    3.877232    -5.228075    -14.383016    0.000000    0.000000    0.000000    
-0.149083    98.809570    -3.283823    -2.299207    -1.053693    92.399689    -0.257442    -7.965469    1.868080    1.670450    -4.625065    1.953450    -2.223934    32.677162    -4.542350    5.135188    -2.866355    -4.233119    13.733826    1.112960    -10.581385    -13.650908    -0.912163    1.305802    -3.027829    -6.129272    29.433798    -1.576086    -5.250065    -6.389858    -16.142170    3.672213    -9.098922    20.904964    -4.995316    12.195683    3.762149    -0.333031    -23.162331    -3.779688    0.680379    -7.325861    4.174584    4.154672    6.312573    -1.574941    4.396096    6.907223    -2.218686    -6.737051    7.923312    0.000000    0.000000    0.000000    -3.448575    4.546062    1.594154    1.678512    0.736653    0.960562    3.896863    -5.252322    -14.377983    0.000000    0.000000    0.000000    
-0.138394    98.808311    -3.282803    -2.297056    -1.044190    92.442154    -0.257092    -7.988947    1.856335    1.659500    -4.587078    1.940771    -2.206811    32.663502    -4.524967    5.091268    -2.735900    -4.224916    13.728902    1.108498    -10.584177    -13.675739    -0.872468    1.309011    -2.992088    -6.164929    29.379805    -1.656347    -5.291875    -6.410278    -16.158428    3.663331    -9.108054    20.922998    -4.109100    12.156907    3.559669    -0.659919    -23.033009    -3.718180    0.303924    -7.301389    4.167515    4.154033    6.320694    -1.568505    4.397895    6.878461    -2.236999    -6.733790    7.900048    0.000000    0.000000    0.000000    -3.459969    4.555240    1.591702    1.688204    0.746899    0.939089    3.900130    -5.271007    -14.385969    0.000000    0.000000    0.000000    
-0.131640    98.804253    -3.279595    -2.300829    -1.041868    92.480453    -0.267541    -8.010482    1.837472    1.718028    -4.546362    1.924400    -2.359269    32.577374    -4.471163    5.146756    -2.507242    -4.192483    13.626681    1.077438    -10.565515    -13.645086    -0.805084    1.326145    -2.975938    -6.061967    29.359127    -2.140153    -5.165058    -6.491243    -16.277519    3.618977    -9.138941    20.983641    -4.025551    12.177453    3.509116    -0.678344    -22.995314    -3.685638    0.271699    -7.326902    4.171754    4.143289    6.304134    -1.570058    4.408605    6.857843    -2.216079    -6.742287    7.901669    0.000000    0.000000    0.000000    -3.463653    4.555958    1.567169    1.700070    0.762273    0.936242    3.867751    -5.285830    -14.398384    0.000000    0.000000    0.000000    
